<?xml version="1.0" encoding="UTF-8" standalone="no"?>
<!-- Created with Inkscape (http://www.inkscape.org/) -->

<svg
   width="210mm"
   height="297mm"
   viewBox="0 0 210 297"
   version="1.1"
   id="svg1"
   xml:space="preserve"
   inkscape:version="1.4 (86a8ad7, 2024-10-11)"
   sodipodi:docname="Vampire-Bottles.svg"
   xmlns:inkscape="http://www.inkscape.org/namespaces/inkscape"
   xmlns:sodipodi="http://sodipodi.sourceforge.net/DTD/sodipodi-0.dtd"
   xmlns="http://www.w3.org/2000/svg"
   xmlns:svg="http://www.w3.org/2000/svg"><sodipodi:namedview
     id="namedview1"
     pagecolor="#ffffff"
     bordercolor="#000000"
     borderopacity="0.25"
     inkscape:showpageshadow="2"
     inkscape:pageopacity="0.0"
     inkscape:pagecheckerboard="0"
     inkscape:deskcolor="#d1d1d1"
     inkscape:document-units="mm"
     inkscape:zoom="0.55856481"
     inkscape:cx="437.72897"
     inkscape:cy="299.87567"
     inkscape:window-width="1440"
     inkscape:window-height="829"
     inkscape:window-x="-8"
     inkscape:window-y="-8"
     inkscape:window-maximized="1"
     inkscape:current-layer="layer1" /><defs
     id="defs1" /><g
     inkscape:label="Layer 1"
     inkscape:groupmode="layer"
     id="layer1"><ellipse
       style="fill:#b43434;fill-opacity:1;stroke-width:0.834672"
       id="ellipse5"
       cx="150.02567"
       cy="150.25558"
       rx="28.02636"
       ry="5.4368081" /><path
       style="fill:#502d16;fill-opacity:1;stroke:none;stroke-width:0.900261;stroke-opacity:1"
       d="m 62.722234,107.37616 c -0.261977,-0.057 -2.19231,-0.19267 -4.28961,-0.30166 -4.291448,-0.223 -5.118026,-0.46751 -5.37014,-1.58855 -0.478203,-2.12629 -1.474623,-8.236252 -1.361608,-8.349254 0.07255,-0.07254 3.070333,0.14197 6.661785,0.476694 8.661686,0.807258 13.639616,0.81113 19.125699,0.01493 5.184134,-0.752415 5.402098,-0.754956 5.251161,-0.06125 -0.06412,0.294718 -0.399001,2.357807 -0.744153,4.58465 -0.345152,2.22682 -0.656347,4.07994 -0.691527,4.11804 -0.03518,0.038 -2.354922,0.2762 -5.154943,0.52911 -5.044823,0.45569 -12.509403,0.77666 -13.426664,0.57735 z"
       id="path12" /><path
       style="fill:#502d16;fill-opacity:1;stroke:none;stroke-width:0.220998;stroke-opacity:1"
       d="m 148.4103,107.07618 c -1.26455,-0.0316 -3.99557,-0.14462 -5.49571,-0.22736 -1.69567,-0.0935 -6.35908,-0.41359 -6.84041,-0.46948 l -0.29233,-0.0339 -0.483,-3.31298 c -0.45114,-3.094373 -0.82571,-6.116329 -0.76557,-6.176457 0.0144,-0.01444 0.1538,0.01211 0.30968,0.05904 0.5292,0.159266 2.10417,0.491573 3.16056,0.666866 3.34707,0.555371 7.04016,0.744617 13.3885,0.686068 4.34005,-0.03999 5.78914,-0.108931 8.35592,-0.397297 1.71445,-0.192613 3.78894,-0.571628 5.06659,-0.925686 0.23406,-0.06486 0.43363,-0.109881 0.44347,-0.100041 0.032,0.03198 -1.06981,9.449797 -1.11027,9.490247 -0.0925,0.0925 -4.0226,0.46694 -6.32454,0.60255 -2.55539,0.15056 -6.56926,0.2096 -9.41289,0.13846 z"
       id="path13" /><path
       style="fill:#502d16;fill-opacity:1;stroke:none;stroke-width:0.214631;stroke-opacity:1"
       d="m 150.61352,96.690587 c -0.8432,-0.02359 -2.65733,-0.09588 -4.03142,-0.16065 -1.37409,-0.06477 -3.27766,-0.143217 -4.23015,-0.174342 -2.02662,-0.06623 -2.43476,-0.09059 -3.46361,-0.206837 -1.99788,-0.225724 -3.33458,-0.684493 -3.97866,-1.365514 -0.16739,-0.176987 -0.27278,-0.332295 -0.24447,-0.36027 0.0718,-0.07097 1.02211,-0.373819 1.78156,-0.567775 1.67216,-0.427052 3.21992,-0.649116 5.56449,-0.79836 1.31258,-0.08355 14.05879,-0.08191 15.4727,0.002 2.65444,0.157514 4.68126,0.47671 6.47299,1.019404 1.1165,0.338172 1.05044,0.300804 1.05044,0.594233 v 0.251548 l -0.46843,0.169193 c -2.65037,0.957263 -5.61351,1.453645 -9.55334,1.60036 -1.66341,0.06195 -2.06131,0.06168 -4.3721,-0.003 z"
       id="path14" /><path
       style="fill:#502d16;fill-opacity:1;stroke:none;stroke-width:0.218424;stroke-opacity:1"
       d="m 67.135961,96.780249 c -1.493706,-0.05403 -3.103041,-0.139476 -4.940524,-0.262298 -0.683318,-0.04568 -2.100454,-0.135801 -3.149239,-0.200281 -1.048784,-0.06448 -2.179892,-0.143915 -2.513595,-0.17652 -1.85514,-0.181258 -3.271002,-0.510273 -4.406041,-1.02386 -0.402216,-0.181999 -0.447832,-0.218953 -0.447832,-0.362893 0,-0.144648 0.03805,-0.174738 0.390051,-0.308889 1.940314,-0.739373 4.564401,-1.076903 10.155543,-1.30628 2.837091,-0.116393 11.629878,-0.04402 14.330442,0.117947 2.383523,0.142954 4.192321,0.495444 5.553988,1.082337 0.474541,0.204531 0.514665,0.234732 0.530947,0.399628 0.0173,0.17537 0.009,0.181496 -0.491169,0.363469 -2.279932,0.829436 -5.41973,1.406355 -8.80481,1.617833 -1.322783,0.08263 -4.681955,0.115001 -6.207761,0.0598 z"
       id="path15" /><path
       style="fill:#0f100d;stroke:none;stroke-width:0.646631"
       d="m 134.23633,105.37699 c -4.82985,-0.88336 -6.07674,4.27906 -5.21317,8.04113 0.33106,1.4422 1.38341,2.71538 2.64686,3.44236 0.58871,0.33874 1.6603,0.49357 2.0483,1.07761 0.56136,0.845 0.17583,2.87396 0.17583,3.86334 0,3.6301 0.3479,8.39558 -1.54282,11.63398 -1.59353,2.72935 -4.22618,4.5712 -6.4983,6.68772 -2.53754,2.36376 -4.74516,5.13257 -6.0558,8.368 -2.44585,6.03777 -1.64316,12.95971 -1.64316,19.33293 v 34.04648 c 0,6.21871 -1.16274,13.36802 3.76459,18.12858 2.73632,2.64371 6.46127,3.74021 10.09352,4.45488 6.91938,1.36146 14.02526,1.19776 21.04381,1.19776 6.65066,0 14.55804,-0.004 20.70163,-2.88962 4.09077,-1.9215 7.69579,-5.74648 8.02583,-10.45524 0.32044,-4.57198 0.0154,-9.27397 0.0154,-13.85812 v -27.54514 c 0,-7.11 1.22804,-15.50214 -1.44566,-22.24142 -1.48692,-3.74791 -4.01406,-6.67115 -6.93764,-9.39452 -2.28289,-2.12656 -5.04238,-4.03537 -6.25275,-7.02991 -1.27814,-3.16216 -0.93294,-7.08859 -0.93294,-10.43636 0,-1.04604 -0.32846,-2.7614 0.10324,-3.72499 0.30008,-0.66984 1.53606,-0.86589 2.1209,-1.25451 1.26717,-0.84201 2.28921,-2.21843 2.51484,-3.74598 0.53309,-3.60929 -0.59595,-8.83491 -5.42333,-7.69896 0.86039,-2.83149 0.96642,-6.131553 1.3687,-9.067655 0.14644,-1.068777 0.47185,-2.484137 -0.24528,-3.414364 -1.34448,-1.743981 -4.75756,-1.873445 -6.76932,-2.08883 -6.33796,-0.678544 -13.16942,-0.904674 -19.50401,-0.0701 -2.18166,0.287426 -5.79402,0.222736 -7.25883,2.158929 -0.81418,1.07617 -0.33869,2.711979 -0.14007,3.927627 0.45653,2.79408 1.11838,5.727613 1.23973,8.554393 m -82.806525,0 c -4.494303,-1.29127 -5.718658,4.12099 -5.252393,7.35678 0.234035,1.62412 1.107241,3.17911 2.514971,4.05964 0.611574,0.38254 1.812147,0.54384 2.219383,1.14653 0.544099,0.80522 0.17584,2.74509 0.17584,3.69041 0,3.50659 0.408164,7.65772 -1.004738,10.94962 -1.375511,3.20477 -4.531735,5.29078 -7.036388,7.5569 -2.719352,2.46036 -4.900425,5.45752 -6.253284,8.86753 -2.345187,5.91124 -1.445669,12.93559 -1.445669,19.16184 v 35.2441 c 0,6.51011 -0.702384,13.31875 5.303721,17.61518 6.690536,4.78602 16.576746,4.62624 24.465569,4.62624 6.592851,0 13.155044,-0.0331 19.675105,-1.12687 3.926759,-0.65874 8.080466,-1.93457 10.934303,-4.86795 4.670855,-4.80101 3.437073,-12.01153 3.437073,-18.12858 v -33.7043 c 0,-6.25008 0.806305,-13.0356 -1.441441,-18.99076 -1.327027,-3.51579 -3.657738,-6.53145 -6.428602,-9.03861 -2.350426,-2.12675 -5.298878,-4.09445 -6.691169,-7.04364 -1.544443,-3.27149 -1.178875,-7.42586 -1.178875,-10.94962 0,-0.9983 -0.385225,-3.02526 0.175841,-3.8813 0.347868,-0.53074 1.346565,-0.66247 1.877218,-0.98929 1.351104,-0.83216 2.450415,-2.26038 2.685918,-3.85489 0.539071,-3.64986 -0.527016,-8.85112 -5.423324,-7.69896 0.884966,-2.79846 1.017468,-5.996843 1.467181,-8.896568 0.185889,-1.198575 0.532449,-2.556993 -0.337027,-3.574895 -1.39656,-1.634962 -4.462574,-1.703287 -6.433875,-1.972386 -6.40503,-0.874351 -13.253826,-0.682849 -19.675113,-0.08582 -2.121048,0.197204 -5.975481,0.322137 -7.460404,2.058202 -0.921049,1.076828 -0.459331,2.495915 -0.252275,3.745983 0.473377,2.857841 1.258194,5.831754 1.382437,8.725474 M 81.712385,94.598457 v 0.342176 C 75.44621,97.3544 67.255404,96.77823 60.668577,96.324645 58.086604,96.146843 54.969389,96.169773 52.62745,94.940633 v -0.342176 c 2.097578,-0.902481 4.592225,-1.055129 6.843515,-1.212923 4.359109,-0.305522 8.639953,-0.265153 13.002673,-0.158285 2.868677,0.07027 6.645056,0.0099 9.238747,1.371208 M 164.34782,94.42737 v 0.513263 c -6.66039,2.56925 -14.6013,1.575044 -21.55706,1.371084 -1.85024,-0.05425 -6.54499,-0.05701 -7.52787,-1.884347 4.52879,-1.688072 9.79057,-1.368703 14.54247,-1.368703 4.71838,0 10.0495,-0.306014 14.54246,1.368703 m -28.74276,2.737405 c 4.62765,1.300434 9.60293,1.368702 14.37138,1.368702 4.73507,0 9.6063,-0.07719 14.2003,-1.368702 l -1.02653,8.896575 c -8.94197,1.13603 -17.40963,0.70545 -26.34753,0 l -0.90191,-6.159173 -0.29571,-2.737402 m -54.063766,0.17109 -1.368695,8.725485 c -6.56453,0.51886 -13.067988,1.51321 -19.675105,0.73319 -1.324319,-0.15633 -5.068707,0.18948 -5.990059,-0.86019 -0.464139,-0.52878 -0.45226,-1.7681 -0.577812,-2.43932 -0.383815,-2.05194 -0.733641,-4.109733 -1.131082,-6.159165 6.33338,0.504069 12.403264,1.471842 18.819659,1.190879 3.3295,-0.14579 6.624394,-1.047114 9.923094,-1.190879 m -31.4795,10.524935 c 0.942156,-0.27512 2.150634,0.30629 3.078921,0.49307 2.191281,0.4409 4.442621,0.78929 6.672423,0.94284 5.532247,0.38097 11.075318,0.40896 16.595526,-0.18416 1.766127,-0.18977 3.569323,-0.4457 5.303721,-0.82944 0.81706,-0.18078 1.714723,-0.65967 2.566188,-0.43604 2.503716,0.65758 1.617071,5.8749 -0.171614,6.86847 -2.334288,1.29663 -5.787787,1.22108 -8.382651,1.46903 -4.941122,0.47216 -9.932492,0.36563 -14.88464,0.14879 -3.21954,-0.14098 -6.837685,-0.27453 -9.923094,-1.3068 -2.220041,-0.74273 -3.6867,-6.33882 -0.85478,-7.16576 M 132.8678,107.847 c 0.87969,-0.23105 1.88854,0.26225 2.73726,0.45768 1.66547,0.38349 3.43177,0.64187 5.13264,0.80713 5.52766,0.53705 11.23454,0.69971 16.76661,0.17109 2.23062,-0.21316 4.46933,-0.50839 6.67243,-0.93109 0.9524,-0.18272 2.11106,-0.82386 3.07878,-0.45254 2.31163,0.88701 1.38089,5.82395 -0.34204,6.84854 -2.25848,1.34307 -5.84025,1.19374 -8.38265,1.43668 -5.57267,0.5325 -11.36523,0.53926 -16.93769,0 -2.57854,-0.24953 -5.5983,-0.27695 -8.04113,-1.219 -2.12334,-0.81884 -3.49808,-6.37947 -0.68421,-7.11849 m -52.010854,10.3615 c 0,5.28355 -0.8571,11.8708 1.959457,16.59553 1.496911,2.51104 3.809027,4.21696 5.910579,6.17447 2.917312,2.71733 5.453695,5.5957 6.834285,9.39452 1.80776,4.97427 1.035767,10.88074 1.035767,16.08226 v 29.94038 10.94962 c 0,2.40973 0.199783,4.87741 -0.632868,7.18569 -1.849007,5.12583 -7.687674,6.85942 -12.540905,7.52786 -10.655402,1.46759 -21.676431,1.51168 -32.335605,0.0223 -4.990087,-0.69725 -10.71018,-2.69326 -12.566905,-7.89235 -0.819803,-2.29558 -0.606859,-4.79356 -0.606859,-7.18569 v -11.12068 -29.08493 c 0,-5.62016 -0.64187,-11.56601 1.316566,-16.9377 2.380612,-6.52969 9.128828,-9.21202 12.554226,-14.88464 2.807183,-4.64883 1.869287,-11.55182 1.869287,-16.76661 6.00791,0.47419 11.905278,1.11402 17.964229,0.84871 3.087442,-0.1352 6.158669,-0.71648 9.238746,-0.84871 m 82.806524,0 c 0,5.24847 -0.91352,11.89813 1.88461,16.59553 3.472,5.82864 10.10251,8.5144 12.53892,15.2268 1.86439,5.13648 1.14547,11.05384 1.14547,16.42444 v 29.42711 11.46289 c 0,2.27163 0.2224,4.65844 -0.52674,6.84352 -1.78655,5.21097 -7.19978,7.06652 -12.13376,7.88377 -10.70725,1.77352 -22.66123,1.70999 -33.36214,-0.0845 -4.87806,-0.81804 -10.2322,-2.62812 -11.97549,-7.79928 -0.74991,-2.2245 -0.51391,-4.70144 -0.51391,-7.01461 v -11.46289 -28.91384 c 0,-5.59957 -0.63399,-11.58775 1.31655,-16.9377 2.20653,-6.05212 8.05411,-8.9361 11.7434,-13.85812 2.80204,-3.73829 2.50192,-8.57737 2.50903,-13.00267 0.003,-1.60839 0.38001,-3.19433 0,-4.79046 3.25227,0.13962 6.49429,0.70606 9.75202,0.84871 5.93798,0.26001 11.73192,-0.38382 17.62204,-0.84871 z"
       id="path5" /><ellipse
       style="fill:#b43434;fill-opacity:1;stroke-width:0.854949"
       id="ellipse6"
       cx="67.317223"
       cy="168.91353"
       rx="29.404707"
       ry="5.4368081" /><path
       style="fill:#e28282;fill-opacity:1;stroke-width:1.6374"
       d="m 57.308216,222.55169 c -10.850192,-0.96016 -15.706772,-2.96568 -18.122826,-7.48374 -0.951588,-1.77948 -0.963458,-2.03374 -1.089245,-23.33339 l -0.127171,-21.53432 2.025167,0.89583 c 10.341744,4.57465 46.090497,4.43075 55.083043,-0.22173 l 1.407805,-0.72836 v 20.72478 c 0,22.95701 -0.08608,23.80813 -2.675794,26.45695 -0.769015,0.78658 -2.303064,1.88865 -3.408997,2.44907 -5.086001,2.57727 -20.612622,3.87925 -33.091982,2.77491 z"
       id="path6" /><path
       style="fill:#e28282;fill-opacity:1;stroke-width:1.6374"
       d="m 140.23539,222.74752 c -11.34437,-1.32995 -15.9524,-3.26723 -18.32705,-7.70495 -0.94427,-1.76466 -0.94976,-1.91509 -1.07565,-29.48588 -0.1162,-25.44877 0.11333,-33.06311 1.02412,-33.97391 0.1166,-0.1166 0.74205,0.0987 1.3899,0.47856 8.12785,4.76512 43.14586,5.04491 52.6027,0.42028 l 2.47634,-1.21099 0.33928,1.97659 c 0.1866,1.08711 0.33927,15.03671 0.33927,30.99911 0,28.90862 -0.004,29.02934 -0.93496,30.75522 -3.11014,5.76375 -9.28129,7.59037 -26.35489,7.80088 -5.47963,0.0676 -10.64521,0.0429 -11.47906,-0.0549 z"
       id="path7" /></g></svg>
